<?xml version="1.0" encoding="utf-8"?>
<!-- Generator: Adobe Illustrator 23.0.4, SVG Export Plug-In . SVG Version: 6.00 Build 0)  -->
<svg version="1.1" id="Layer_1" xmlns="http://www.w3.org/2000/svg" xmlns:xlink="http://www.w3.org/1999/xlink" x="0px" y="0px"
	 viewBox="0 0 40 40" style="enable-background:new 0 0 40 40;" xml:space="preserve">
<style type="text/css">
	.st0{fill-rule:evenodd;clip-rule:evenodd;fill:#FFFFFF;stroke:#1D1D1D;}
	.st1{fill-rule:evenodd;clip-rule:evenodd;fill:#1D1D1D;}
</style>
<path class="st0" d="M4.5,8.5h31c2.2,0,4,1.8,4,4v15c0,2.2-1.8,4-4,4h-31c-2.2,0-4-1.8-4-4v-15C0.5,10.3,2.3,8.5,4.5,8.5z"/>
<path class="st1" d="M19.7,17.5H19l-1.5,3.2L16,17.5h-2v4.2l-1.9-4.2h-1.9l-2.2,5h1.5l0.4-1.1h2.3l0.5,1.1h2.5v-3.6l1.7,3.6h1.2
	l1.5-3.3v3.3H21v-5H19.7z M10.4,20.2l0.7-1.7l0.7,1.7H10.4z"/>
<path class="st1" d="M32,17.5h-1.8L28.8,19l-1.4-1.5h-5.5v5h5.4l1.5-1.6l1.4,1.6H32L29.7,20L32,17.5z M26,22v-0.6h-2.8v-0.8H26v-1.1
	h-2.8v-0.8H26v-0.8l1.9,2.1L26,22z"/>
</svg>
