<?xml version="1.0" encoding="utf-8"?>
<!-- Generator: Adobe Illustrator 23.0.4, SVG Export Plug-In . SVG Version: 6.00 Build 0)  -->
<svg version="1.1" id="Layer_1" xmlns="http://www.w3.org/2000/svg" xmlns:xlink="http://www.w3.org/1999/xlink" x="0px" y="0px"
	 viewBox="0 0 40 40" style="enable-background:new 0 0 40 40;" xml:space="preserve">
<style type="text/css">
	.st0{fill-rule:evenodd;clip-rule:evenodd;fill:#FFFFFF;stroke:#1D1D1D;}
	.st1{fill:none;}
	.st2{fill-rule:evenodd;clip-rule:evenodd;fill:#1D1D1D;}
</style>
<path class="st0" d="M4.5,8.5h31c2.2,0,4,1.8,4,4v15c0,2.2-1.8,4-4,4h-31c-2.2,0-4-1.8-4-4v-15C0.5,10.3,2.3,8.5,4.5,8.5z"/>
<path class="st1" d="M8,8h24v24H8V8z"/>
<path class="st2" d="M12.4,16.3c-0.3,0.3-0.7,0.6-1.2,0.6c-0.1-0.5,0.2-0.9,0.4-1.2c0.3-0.3,0.8-0.6,1.2-0.6
	C12.8,15.5,12.7,16,12.4,16.3z"/>
<path class="st2" d="M12.8,17c-0.7,0-1.2,0.4-1.5,0.4C11,17.3,10.5,17,10,17c-0.7,0-1.3,0.4-1.6,1c-0.7,1.2-0.2,3,0.5,4
	c0.3,0.5,0.7,1,1.3,1c0.5,0,0.7-0.3,1.3-0.3c0.6,0,0.8,0.3,1.3,0.3c0.5,0,0.9-0.5,1.2-1c0.4-0.6,0.5-1.1,0.5-1.1
	c0,0-1.1-0.4-1.1-1.6c0-1,0.8-1.5,0.9-1.5C13.8,17.1,13,17,12.8,17z"/>
<path class="st2" d="M19.3,15.6h-2.7V23h1.1v-2.5h1.6c1.4,0,2.4-1,2.4-2.4C21.7,16.6,20.7,15.6,19.3,15.6z M19,19.5h-1.3v-2.9H19
	c1,0,1.5,0.5,1.5,1.5C20.5,18.9,20,19.5,19,19.5z"/>
<path class="st2" d="M24.4,17.5c-1.2,0-2.1,0.7-2.1,1.7h1c0.1-0.5,0.5-0.8,1.1-0.8c0.7,0,1.1,0.3,1.1,0.9v0.4L24,19.9
	c-1.3,0.1-2,0.6-2,1.6c0,1,0.7,1.6,1.8,1.6c0.7,0,1.4-0.4,1.7-0.9h0V23h1.1v-3.7C26.5,18.2,25.7,17.5,24.4,17.5z M25.4,21
	c0,0.7-0.6,1.2-1.3,1.2c0,0,0,0,0,0h0c0,0,0,0,0,0c-0.6,0-1-0.3-1-0.7c0-0.5,0.4-0.7,1.1-0.8l1.3-0.1V21z"/>
<path class="st2" d="M27.9,25c1.1,0,1.6-0.4,2.1-1.7l2-5.7h-1.2L29.5,22h0l-1.3-4.4H27l1.9,5.4l-0.1,0.3c-0.2,0.6-0.5,0.8-1,0.8
	c-0.1,0-0.3,0-0.3,0V25C27.6,25,27.8,25,27.9,25L27.9,25z"/>
</svg>
