<?xml version="1.0" encoding="utf-8"?>
<!-- Generator: Adobe Illustrator 23.0.4, SVG Export Plug-In . SVG Version: 6.00 Build 0)  -->
<svg version="1.1" id="Layer_1" xmlns="http://www.w3.org/2000/svg" xmlns:xlink="http://www.w3.org/1999/xlink" x="0px" y="0px"
	 viewBox="0 0 40 40" style="enable-background:new 0 0 40 40;" xml:space="preserve">
<style type="text/css">
	.st0{fill-rule:evenodd;clip-rule:evenodd;fill:#FFFFFF;stroke:#1D1D1D;}
	.st1{fill-rule:evenodd;clip-rule:evenodd;fill:#1D1D1D;}
</style>
<path class="st0" d="M4.5,8.5h31c2.2,0,4,1.8,4,4v15c0,2.2-1.8,4-4,4h-31c-2.2,0-4-1.8-4-4v-15C0.5,10.3,2.3,8.5,4.5,8.5z"/>
<path class="st1" d="M21.2,17.8c-1.2,0-2.2,1-2.1,2.3c0,1.2,1,2.2,2.2,2.2c1.2,0,2.2-1,2.2-2.2c0-0.6-0.2-1.2-0.7-1.6
	C22.4,18,21.8,17.7,21.2,17.8L21.2,17.8z"/>
<rect x="9.6" y="17.9" class="st1" width="0.8" height="4.2"/>
<path class="st1" d="M8.7,19c-0.1-0.2-0.3-0.5-0.5-0.7h0C8,18.2,7.8,18.1,7.5,18c-0.3-0.1-0.5-0.1-0.8-0.1H5v4.2h1.6
	c0.3,0,0.5,0,0.8-0.1c0.3-0.1,0.5-0.2,0.7-0.4c0.2-0.2,0.4-0.4,0.5-0.7c0.1-0.3,0.2-0.6,0.2-1C8.9,19.7,8.8,19.3,8.7,19z M7.9,20.7
	L7.9,20.7c-0.1,0.2-0.2,0.3-0.4,0.4c-0.2,0.1-0.4,0.2-0.6,0.2c-0.2,0.1-0.5,0.1-0.7,0.1H5.8v-2.9h0.7c0.2,0,0.4,0,0.7,0.1
	c0.2,0,0.4,0.1,0.5,0.2C7.8,19,7.9,19.2,8,19.3c0.1,0.2,0.1,0.4,0.1,0.7C8.1,20.2,8,20.5,7.9,20.7z"/>
<path class="st1" d="M13.5,19.9c-0.2-0.1-0.3-0.2-0.5-0.2l-0.5-0.2c-0.1,0-0.3-0.1-0.4-0.2C12,19.3,12,19.1,12,19
	c0-0.2,0.1-0.3,0.2-0.4c0.1,0,0.1-0.1,0.2-0.1c0.1,0,0.2,0,0.3,0c0.1,0,0.3,0,0.4,0.1c0.1,0.1,0.2,0.1,0.3,0.3l0.6-0.6
	c-0.2-0.2-0.4-0.3-0.6-0.3c-0.4-0.1-0.8-0.1-1.2,0c-0.2,0-0.4,0.1-0.5,0.2c-0.1,0.1-0.3,0.2-0.4,0.4c-0.1,0.2-0.1,0.4-0.1,0.6
	c0,0.2,0,0.4,0.1,0.6c0.1,0.1,0.2,0.3,0.4,0.4c0.2,0.1,0.3,0.2,0.5,0.2l0.5,0.2c0.1,0,0.3,0.1,0.4,0.2c0.1,0.1,0.2,0.2,0.1,0.4
	c0,0.1,0,0.2-0.1,0.3c0,0.1-0.1,0.1-0.2,0.2c-0.1,0-0.2,0.1-0.2,0.1c-0.1,0-0.2,0-0.3,0c-0.2,0-0.3,0-0.5-0.1
	c-0.1-0.1-0.3-0.2-0.4-0.3l-0.5,0.6c0.2,0.2,0.4,0.4,0.6,0.4c0.2,0.1,0.5,0.1,0.8,0.1c0.2,0,0.4,0,0.6-0.1c0.2-0.1,0.4-0.1,0.5-0.2
	c0.3-0.2,0.5-0.6,0.5-1c0-0.2,0-0.4-0.1-0.6C13.8,20.1,13.6,20,13.5,19.9C13.5,19.9,13.5,19.9,13.5,19.9z"/>
<polygon class="st1" points="28.9,20.3 30.8,20.3 30.8,19.6 28.9,19.6 28.9,18.6 30.9,18.6 30.9,17.9 28.1,17.9 28.1,22.2 31,22.2 
	31,21.5 28.9,21.5 "/>
<path class="st1" d="M33.9,20.3c0.3,0,0.5-0.2,0.7-0.4c0.3-0.4,0.3-0.9,0.1-1.4c-0.1-0.2-0.2-0.3-0.4-0.4c-0.2-0.1-0.3-0.2-0.5-0.2
	c-0.2,0-0.4-0.1-0.6-0.1h-1.6v4.2h0.8v-1.8h0.6l1,1.8H35L33.9,20.3z M33.5,19.7h-0.9v-1.2h1c0.1,0,0.2,0,0.3,0.1
	c0.1,0,0.2,0.1,0.2,0.2c0.1,0.1,0.1,0.2,0.1,0.3c0,0.1,0,0.2-0.1,0.3c-0.1,0.1-0.1,0.1-0.2,0.2C33.7,19.6,33.6,19.7,33.5,19.7z"/>
<path class="st1" d="M17.4,21.4c-0.2,0.1-0.3,0.1-0.5,0.1c-0.4,0-0.8-0.2-1.1-0.5c-0.1-0.1-0.2-0.3-0.3-0.5
	c-0.1-0.2-0.1-0.4-0.1-0.6c0-0.2,0-0.4,0.1-0.6c0.1-0.2,0.2-0.3,0.3-0.5c0.1-0.1,0.3-0.2,0.5-0.3c0.2-0.1,0.4-0.1,0.6-0.1
	c0.4,0,0.7,0.1,0.9,0.4l0.6-0.4c-0.2-0.2-0.4-0.4-0.7-0.5c-0.3-0.1-0.5-0.2-0.8-0.1c-0.3,0-0.6,0.1-0.9,0.2
	c-0.3,0.1-0.5,0.3-0.7,0.5c-0.2,0.2-0.4,0.4-0.5,0.7c-0.1,0.3-0.2,0.6-0.2,0.9c0,0.3,0.1,0.6,0.2,0.9c0.1,0.3,0.3,0.5,0.5,0.7
	c0.2,0.2,0.5,0.4,0.7,0.5c0.3,0.1,0.6,0.2,0.9,0.2c0.3,0,0.6-0.1,0.9-0.2c0.3-0.1,0.5-0.3,0.7-0.6L17.8,21
	C17.7,21.2,17.5,21.3,17.4,21.4z"/>
<polygon class="st1" points="25.6,21.1 24.4,17.9 23.5,17.9 25.2,22.1 25.8,22.1 27.6,17.9 26.8,17.9 "/>
</svg>
