<svg width="40" height="40" xmlns="http://www.w3.org/2000/svg">
    <g fill="#ffffff" fill-rule="evenodd">
        <rect stroke="#1D1D1D" x=".5" y="8.5" width="39" height="23" rx="4"/>
        <path d="M31.719 20.852c0-.58-.518-1.048-1.158-1.048-.639 0-1.157.47-1.157 1.048 0 .578.519 1.047 1.158 1.047.64 0 1.157-.469 1.157-1.047zm.004-2.037H33v4.073h-1.277v-.26a2.316 2.316 0 0 1-1.266.372c-1.243 0-2.25-.962-2.25-2.148 0-1.187 1.007-2.148 2.25-2.148.47 0 .905.137 1.266.372v-.26zm-10.22.53v-.529h-1.308v4.072h1.31v-1.902c0-.641.729-.986 1.234-.986h.015v-1.184c-.519 0-.995.212-1.251.53zm-3.258 1.507c0-.58-.518-1.048-1.157-1.048-.64 0-1.157.47-1.157 1.048 0 .578.519 1.047 1.158 1.047.639 0 1.156-.469 1.156-1.047zm.005-2.037h1.277v4.073H18.25v-.26c-.361.234-.796.372-1.266.372-1.243 0-2.251-.962-2.251-2.148 0-1.187 1.008-2.148 2.25-2.148.47 0 .906.137 1.267.372v-.26zm7.687-.109c-.51 0-.993.151-1.316.568v-.458H23.35v4.072h1.287v-2.14c0-.619.434-.923.959-.923.56 0 .884.32.884.914v2.149h1.275v-2.59c0-.947-.79-1.592-1.818-1.592zm-13.064 4.182h1.337V17h-1.337v5.887zM7 22.889h1.416V17H7L7 22.889zM11.952 17c0 1.275-.52 2.461-1.448 3.343l1.957 2.546h-1.749l-2.125-2.767.549-.393c.906-.644 1.436-1.656 1.43-2.729h1.386z" fill="#0A0B09" fill-rule="nonzero"/>
    </g>
</svg>
