<svg xmlns="http://www.w3.org/2000/svg" width="42" height="24" viewBox="0 0 42 24">
    <g fill="#0C0D0D" opacity=".9">
        <path d="M26.957 11.941c-.152.112-.331.24-.55.394C25.015 13.323 22.99 14 20.36 14h-.175c-2.63 0-4.654-.676-6.049-1.664-.216-.153-.395-.282-.547-.394.152-.113.331-.242.547-.395 1.395-.987 3.42-1.665 6.05-1.665h.174c2.631 0 4.656.678 6.049 1.665.218.153.397.282.549.395M40.55 3.8s-1.197-.915-4.984-2.305C32.24.274 29.733 0 29.733 0l.01 7.17c0 1.009-.275 1.93-1.045 2.981-2.825-1.03-5.497-1.662-8.416-1.662-2.92 0-5.589.632-8.414 1.662-.772-1.045-1.046-1.972-1.046-2.981L10.835 0S8.309.27 4.982 1.494C1.197 2.888 0 3.799 0 3.799c.157 3.254 3.006 6.147 7.494 8.142C3.003 13.935.154 16.821 0 20.083c0 0 1.197.914 4.982 2.306 3.326 1.22 5.835 1.493 5.835 1.493l-.012-7.17c0-1.01.277-1.932 1.046-2.981 2.825 1.028 5.494 1.66 8.414 1.66 2.919 0 5.59-.632 8.415-1.66.772 1.046 1.046 1.971 1.046 2.98l-.01 7.171s2.507-.271 5.832-1.493c3.787-1.394 4.985-2.306 4.985-2.306-.157-3.255-3.007-6.148-7.494-8.142 4.49-1.995 7.34-4.88 7.494-8.142M41.885 19.215c0 .171-.102.325-.26.391-.157.066-.338.03-.46-.09-.12-.12-.157-.302-.092-.46.066-.158.22-.26.39-.26.112-.001.22.043.298.122.08.079.124.186.124.297m.089 0c0-.206-.123-.393-.314-.473-.19-.08-.41-.036-.557.11-.147.146-.19.366-.112.557.08.19.266.315.472.315.282 0 .51-.227.51-.509"/>
        <path d="M41.566 19.463h.092l-.148-.211c.035-.002.067-.018.089-.045.022-.026.032-.06.028-.094 0-.08-.044-.135-.157-.135h-.174v.485h.082v-.207h.043l.145.207zm-.195-.422h.077c.066 0 .094.023.094.075s-.025.079-.094.079h-.077v-.154z"/>
    </g>
</svg>
