<?xml version="1.0" encoding="utf-8"?>
<!-- Generator: Adobe Illustrator 23.0.4, SVG Export Plug-In . SVG Version: 6.00 Build 0)  -->
<svg version="1.1" id="Layer_1" xmlns="http://www.w3.org/2000/svg" xmlns:xlink="http://www.w3.org/1999/xlink" x="0px" y="0px"
	 viewBox="0 0 40 40" style="enable-background:new 0 0 40 40;" xml:space="preserve">
<style type="text/css">
	.st0{fill-rule:evenodd;clip-rule:evenodd;fill:#FFFFFF;stroke:#1D1D1D;}
	.st1{fill-rule:evenodd;clip-rule:evenodd;fill:#1D1D1D;}
</style>
<path class="st0" d="M4.5,8.5h31c2.2,0,4,1.8,4,4v15c0,2.2-1.8,4-4,4h-31c-2.2,0-4-1.8-4-4v-15C0.5,10.3,2.3,8.5,4.5,8.5z"/>
<path class="st1" d="M11.6,17.1c-0.4-0.4-0.9-0.6-1.5-0.5h-2c-0.1,0-0.3,0.1-0.3,0.2L7,22c0,0,0,0.1,0,0.1c0,0,0.1,0.1,0.1,0.1h1
	c0.1,0,0.2-0.1,0.3-0.2l0.2-1.4c0-0.1,0.1-0.2,0.3-0.2h0.6c0.6,0.1,1.1-0.1,1.6-0.5c0.4-0.4,0.7-0.9,0.7-1.5
	C12,17.9,11.9,17.4,11.6,17.1z M10.4,18.4c-0.1,0.7-0.7,0.7-1.2,0.7H8.9l0.2-1.4c0-0.1,0.1-0.2,0.2-0.2h0.1c0.4,0,0.7,0,0.9,0.2
	C10.4,18,10.4,18.2,10.4,18.4z"/>
<path class="st1" d="M16.4,18.4c-0.1-0.1-0.1-0.1-0.2,0l0,0h-1c-0.1,0-0.2,0.1-0.2,0.1v0.3l-0.1-0.1c-0.3-0.3-0.7-0.5-1.1-0.4
	c-1.1,0-2,0.9-2.2,2c-0.1,0.5,0,1.1,0.4,1.5c0.3,0.4,0.8,0.5,1.2,0.5c0.5,0,1-0.2,1.3-0.6v0.3c0,0,0,0.1,0,0.1c0,0,0.1,0.1,0.1,0.1
	h0.9c0.1,0,0.3-0.1,0.3-0.2l0.5-3.4C16.4,18.6,16.4,18.5,16.4,18.4z M13.7,21.3c-0.2,0-0.5-0.1-0.6-0.3c-0.2-0.2-0.2-0.5-0.2-0.7
	c0.1-0.6,0.5-1,1.1-1c0.2,0,0.5,0.1,0.6,0.3c0.2,0.2,0.2,0.5,0.2,0.7C14.8,20.9,14.3,21.3,13.7,21.3z"/>
<path class="st1" d="M21.3,18.4h-1c-0.1,0-0.2,0-0.2,0.1l-1.3,2l-0.6-2c0-0.1-0.1-0.2-0.3-0.2h-1c-0.1,0-0.1,0-0.1,0.1
	c0,0,0,0.1,0,0.2l1.1,3.2l-1,1.5c0,0.1,0,0.1,0,0.2c0,0.1,0.1,0.1,0.1,0.1h1c0.1,0,0.2,0,0.2-0.1l3.2-4.8
	C21.5,18.5,21.4,18.4,21.3,18.4L21.3,18.4z"/>
<path class="st1" d="M26,17.1c-0.4-0.4-0.9-0.6-1.5-0.5h-2c-0.1,0-0.3,0.1-0.3,0.2L21.4,22c0,0,0,0.1,0,0.1c0,0,0.1,0.1,0.1,0.1h1
	c0.1,0,0.2-0.1,0.2-0.2l0.2-1.5c0-0.1,0.1-0.2,0.3-0.2H24c0.6,0.1,1.1-0.1,1.6-0.5c0.4-0.4,0.7-0.9,0.7-1.5
	C26.4,17.9,26.3,17.4,26,17.1z M24.8,18.4L24.8,18.4c-0.1,0.8-0.7,0.8-1.2,0.8h-0.3l0.2-1.4c0-0.1,0.1-0.2,0.2-0.1h0.1
	c0.4,0,0.7,0,0.9,0.2C24.8,18.1,24.8,18.3,24.8,18.4z"/>
<path class="st1" d="M30.7,18.5c0,0-0.1-0.1-0.1-0.1l0,0.1h-1c-0.1,0-0.2,0.1-0.2,0.1v0.3l-0.1-0.1c-0.3-0.3-0.7-0.5-1.1-0.4
	c-1.1,0-2,0.9-2.2,2c-0.1,0.5,0,1.1,0.4,1.5c0.3,0.4,0.8,0.5,1.2,0.5c0.5,0,1-0.2,1.3-0.6v0.3c0,0,0,0.1,0,0.1c0,0,0.1,0.1,0.1,0.1
	H30c0.1,0,0.3-0.1,0.3-0.2l0.5-3.5C30.8,18.6,30.8,18.5,30.7,18.5z M28.1,21.3c-0.2,0-0.5-0.1-0.6-0.3c-0.2-0.2-0.2-0.5-0.2-0.7
	c0.1-0.6,0.5-1,1.1-1c0.2,0,0.5,0.1,0.6,0.3c0.2,0.2,0.2,0.5,0.2,0.7C29.2,20.9,28.7,21.3,28.1,21.3z"/>
<path class="st1" d="M32.8,16.5h-1c-0.1,0-0.2,0.1-0.2,0.1L30.9,22c0,0,0,0.1,0,0.1c0,0,0.1,0.1,0.1,0.1h0.8c0.1,0,0.3-0.1,0.3-0.2
	l0.8-5.3c0,0,0-0.1,0-0.1C32.9,16.5,32.9,16.5,32.8,16.5L32.8,16.5z"/>
</svg>
