<svg height="16" viewBox="0 0 228 16" width="228" xmlns="http://www.w3.org/2000/svg"><g fill="#0c0d0d"><path d="m90.32.81c3.06 0 4.6 1.85 4.6 4.43v1.57c0 2.25-1 3.75-2.91 4.35l2.91 4.43h-4.39l-2.86-4.35h-3.18l-1.68-3.1h6.88c.3207576.03933555.6417606-.0712214.8702696-.2997304s.339066-.549512.2997304-.8702696v-1.31c.0386521-.32146188-.071735-.64296113-.2997038-.8728784-.2279689-.22991726-.548517-.34303653-.8702962-.3071216h-7.42v11.11h-4.06v-14.78z"/><path d="m135.08.81c3.06 0 4.6 1.85 4.6 4.43v1.57c0 2.25-1 3.75-2.91 4.35l2.91 4.43h-4.4l-2.86-4.35h-3.18l-1.68-3.1h6.88c.320758.03933555.641761-.0712214.87027-.2997304s.339066-.549512.29973-.8702696v-1.31c.038652-.32146188-.071735-.64296113-.299704-.8728784-.227969-.22991726-.548517-.34303653-.870296-.3071216h-7.42v11.11h-4.06v-14.78z"/><path d="m218.19.81c3.06 0 4.6 1.85 4.6 4.43v1.57c0 2.25-1 3.75-2.92 4.35l2.92 4.43h-4.4l-2.85-4.35h-3.19l-1.68-3.1h6.88c.320758.03933555.641761-.0712214.87027-.2997304s.339066-.549512.29973-.8702696v-1.31c.038652-.32146188-.071735-.64296113-.299704-.8728784-.227969-.22991726-.548517-.34303653-.870296-.3071216h-7.42v11.11h-4.05v-14.78z"/><path d="m17.08 11.32c.1061689 1.1635756-.3109087 2.3140588-1.1380645 3.139282s-1.9786114 1.2396084-3.1419355 1.130718h-8.08c-1.16167354.1057167-2.31028116-.3100756-3.13510279-1.1348972s-1.24061392-1.9734293-1.13489721-3.1351028v-10.51h4.07v9.73c-.053899.3674785.06836223.7388881.33000345 1.0024966.26164121.2636084.63212464.3886483.99999655.3375034h5.85c.3748398.0645027.75793-.05406 1.030803-.3190237.2728731-.2649637.4026495-.6444019.349197-1.0209763v-9.73h4z"/><path d="m23.19.81c.8114958-.12846315 1.6301548.1837696 2.15.82l5.53 6.26 2.07 2.63-.1-3.44v-6.3h4.06v14.81h-3.1c-.8209224.1228959-1.6457836-.1964052-2.17-.84l-5.55-6.28-2.3-2.77.17 3.45v6.44h-4.03v-14.78z"/><path d="m52.9 10.58v-4.76c.0504058-.36588445-.0734104-.73426373-.3345733-.99542668-.261163-.26116294-.6295423-.38497908-.9954267-.33457332h-7.6v11.11h-4.07v-14.79h12.8c1.1616735-.10571671 2.3102812.31007558 3.1351028 1.13489721s1.2406139 1.97342925 1.1348972 3.13510279v6.24c.1088904 1.1633241-.3054948 2.3147797-1.130718 3.1419355s-1.9757064 1.2442334-3.139282 1.1380645h-6.22l-1.93-3.68h7c.3678719.0511449.7383553-.073895.9999966-.3375034.2616412-.2636085.3839024-.6350181.3300034-1.0024966"/><path d="m75.64 4.53h-11.84c-.0803973-.0028236-.1583551.0278758-.2152397.08476035-.0568845.05688455-.0875839.13484231-.0847603.21523965v6.75c0 .1656854.1343146.3.3.3h11.84v3.72h-13.74c-.6722756.062373-1.3374275-.177748-1.8148398-.6551602-.4774122-.4774123-.7175332-1.1425642-.6551602-1.8148398v-9.86c-.0592037-.67062287.1823214-1.33292809.6593323-1.80800777.4770109-.47507969 1.1402905-.71391597 1.8106677-.65199223h13.74zm-.21 5h-9.88l-1.47-2.79h9.88z"/><path d="m100.6 15.6 7.76-14.79h4.13c1.15 0 1.69.25 2.12 1l7.16 13.74h-4.8l-1.21-2.37h-5.24l-1.68-3.1h5.31l-3-5.87-5.77 11.34z"/><path d="m146.41.81c.844907-.09259393 1.64598.39626577 1.95 1.19l3.43 6.45 1.29 3 1.32-3 3.41-6.45c.314447-.80875095 1.139205-1.29948166 2-1.19h4.12v14.78h-4v-4.86l.27-5.14-1.85 3.86-3.45 6.14h-3.53l-3.43-6.14-1.89-3.86.31 5.14v4.86h-4v-14.78z"/><path d="m170.83.81h9c1.159274-.10304387 2.304396.31436923 3.125425 1.13926131.821028.82489208 1.23306 1.97196108 1.124575 3.13073869v6.24c.10889 1.1633241-.305495 2.3147797-1.130718 3.1419355s-1.975706 1.2442334-3.139282 1.1380645h-9c-1.164322.105673-2.315444-.3111874-3.142129-1.1378715-.826684-.826684-1.243544-1.9778063-1.137871-3.1421285v-6.24c-.106169-1.16357561.310909-2.31405876 1.138064-3.13928196.827156-.82522319 1.978612-1.23960841 3.141936-1.13071804m7.84 11.11c.36853.0503011.739383-.0746043 1.002389-.3376107.263007-.2630064.387912-.633859.337611-1.0023893v-4.76c.046859-.3669231-.079574-.73477248-.342113-.99535208-.262539-.26057959-.631325-.38425445-.997887-.33464792h-6.71c-.367478-.053899-.738888.06836223-1.002497.33000345-.263608.26164121-.388648.63212464-.337503.99999655v4.76c-.050301.3685303.074604.7393829.337611 1.0023893.263006.2630064.633859.3879118 1.002389.3376107z"/><path d="m203.3 11.32c.106169 1.1635756-.310909 2.3140588-1.138064 3.139282-.827156.8252232-1.978612 1.2396084-3.141936 1.130718h-8.11c-1.161674.1057167-2.310281-.3100756-3.135103-1.1348972-.824821-.8248216-1.240614-1.9734293-1.134897-3.1351028v-10.51h4.07v9.73c-.057195.3755298.06989.7556307.341449 1.0212428.271558.2656121.654379.3842518 1.028551.3187572h5.85c.36853.0503011.739383-.0746043 1.002389-.3376107.263007-.2630064.387912-.633859.337611-1.0023893v-9.73h4.07z"/><path d="m227.35 14.13c0 .4893993-.294807.9306092-.746953 1.1178942s-.972589.0837626-1.318646-.262295c-.346058-.3460576-.44958-.8665001-.262295-1.3186462.187285-.452146.628495-.746953 1.117894-.746953.668265 0 1.21.5417355 1.21 1.21m.25 0c.004043-.5963602-.35262-1.1360655-.902821-1.3661544-.550201-.2300888-1.184892-.1049588-1.606592.3167412s-.54683 1.0563914-.316741 1.6065922c.230088.5502008.769794.9068643 1.366154.902821.804067-.0054515 1.454549-.6559332 1.46-1.46"/><path d="m226.43 14.83h.27l-.43-.61c.099313-.0048948.192178-.0506479.256576-.1264101s.094593-.1747858.083424-.2735899c0-.23-.13-.39-.46-.39h-.52v1.4h.24v-.6h.15zm-.56-1.22h.21c.19 0 .27.07.27.22s-.07.23-.27.23h-.22z"/></g></svg>