<?xml version="1.0" encoding="utf-8"?>
<!-- Generator: Adobe Illustrator 23.0.4, SVG Export Plug-In . SVG Version: 6.00 Build 0)  -->
<svg version="1.1" id="Layer_1" xmlns="http://www.w3.org/2000/svg" xmlns:xlink="http://www.w3.org/1999/xlink" x="0px" y="0px"
	 viewBox="0 0 40 40" style="enable-background:new 0 0 40 40;" xml:space="preserve">
<style type="text/css">
	.st0{fill-rule:evenodd;clip-rule:evenodd;fill:#FFFFFF;stroke:#1D1D1D;}
	.st1{fill-rule:evenodd;clip-rule:evenodd;fill:#1D1D1D;}
</style>
<path class="st0" d="M4.5,8.5h31c2.2,0,4,1.8,4,4v15c0,2.2-1.8,4-4,4h-31c-2.2,0-4-1.8-4-4v-15C0.5,10.3,2.3,8.5,4.5,8.5z"/>
<path class="st1" d="M17.3,16.5l-2.9,6.9h-1.9L11.2,18c0-0.3-0.2-0.5-0.4-0.6c-0.6-0.3-1.1-0.5-1.7-0.6v-0.2h3
	c0.4,0,0.8,0.3,0.8,0.7l0.8,4l1.8-4.7C15.4,16.6,17.3,16.5,17.3,16.5z"/>
<path class="st1" d="M24.6,21.2c0-1.8-2.5-1.9-2.5-2.7c0-0.2,0.2-0.5,0.8-0.6c0.6-0.1,1.2,0.1,1.7,0.3l0.3-1.5
	c-0.5-0.2-1.1-0.3-1.7-0.3c-1.8,0-3,0.9-3,2.3c0,1,0.9,1.5,1.5,1.9s0.9,0.5,0.9,0.9c0,0.5-0.5,0.7-1.1,0.7c-0.6,0-1.3-0.1-1.8-0.4
	l-0.3,1.5c0.6,0.3,1.3,0.4,2,0.4C23.4,23.5,24.6,22.6,24.6,21.2L24.6,21.2z"/>
<path class="st1" d="M29.5,16.5H28c-0.3,0-0.6,0.2-0.8,0.5l-2.7,6.4h1.9l0.4-1h2.3l0.2,1h1.6L29.5,16.5z M27.3,21l0.9-2.6l0.6,2.6
	L27.3,21z"/>
<polygon class="st1" points="19.8,16.5 18.4,23.4 16.6,23.4 18.1,16.5 "/>
</svg>
